# xmcd CD database file
#
# Track frame offsets:
#	150
#	24544
#	53210
#	72775
#	94723
#	118623
#	144679
#	160798
#	180155
#	195573
#	224228
#	251806
#	271759
#	294757
#
# Disc length: 4242 seconds
#
# Revision: 0
# Processed by: cddbd v1.4PL0 Copyright (c) Steve Scherf et al.
# Submitted via: CDex 1.50beta9
#
DISCID=c910900e
DTITLE=The Bear Facts - Grin and "A-Bear" It
DYEAR=1900
DGENRE=Jazz
TTITLE0=At Sundown
TTITLE1=Jada
TTITLE2=It's Only A Paper Moon
TTITLE3=Shine
TTITLE4=Witchcraft
TTITLE5=Sweet Georgia Brown
TTITLE6=If I Had You
TTITLE7=How High The Moon
TTITLE8=St. James Infirmary
TTITLE9=Honeysuckle Rose
TTITLE10=Satin Doll
TTITLE11=Cabaret
TTITLE12=Is You Is, Or Is You Ain't My Baby?
TTITLE13=Sheik Of Araby
EXTD=
EXTT0=
EXTT1=
EXTT2=
EXTT3=
EXTT4=
EXTT5=
EXTT6=
EXTT7=
EXTT8=
EXTT9=
EXTT10=
EXTT11=
EXTT12=
EXTT13=
PLAYORDER=
